<svg xmlns="http://www.w3.org/2000/svg" width="131" height="74" fill="none" viewBox="0 0 131 74">
  <path fill="url(#a)" d="M7.2 74a62.472 62.472 0 0 1-.406-7.115c0-15.9 6.185-31.147 17.194-42.39C34.998 13.254 49.93 6.938 65.5 6.938s30.502 6.316 41.512 17.559c11.009 11.242 17.194 26.49 17.194 42.389 0 2.378-.135 4.753-.406 7.115h6.817c.243-2.364.365-4.739.365-7.115-.283-17.546-7.308-34.275-19.559-46.58C99.172 8 82.676 1.104 65.491 1.104 48.307 1.104 31.811 8 19.56 20.305 7.31 32.611.284 49.34 0 66.885 0 69.26.122 71.636.366 74H7.2Z"/>
  <path fill="url(#b)" d="M6.62 73.467a62.903 62.903 0 0 1-.348-6.582 61.58 61.58 0 0 1 4.822-23.905 60.509 60.509 0 0 1 13.682-20.013 59.047 59.047 0 0 1 20.314-12.86 58.107 58.107 0 0 1 23.638-3.615 58.264 58.264 0 0 1 23.112 6.22 59.426 59.426 0 0 1 18.823 15.042 60.878 60.878 0 0 1 11.468 21.414 61.722 61.722 0 0 1 2.245 24.3l.722-.67c.183-1.944.281-3.92.281-5.918 0-16.217-6.309-31.77-17.54-43.239-11.23-11.467-26.462-17.91-42.343-17.91-15.882 0-31.114 6.443-42.344 17.91-11.23 11.468-17.54 27.022-17.54 43.24 0 1.993.094 3.969.277 5.917l.727.67h.004Z"/>
  <path fill="url(#c)" d="m.834 73.467.597-.669h4.462l.727.67H.834Z"/>
  <path fill="url(#d)" d="M130.171 73.467a69.83 69.83 0 0 0 .312-6.582c0-17.598-6.846-34.475-19.032-46.918C99.265 7.523 82.738.533 65.504.533c-17.233 0-33.76 6.99-45.946 19.434C7.372 32.41.526 49.287.526 66.885c0 2.217.103 4.42.312 6.582l.597-.669a68.257 68.257 0 0 1-.258-5.918c0-17.421 6.777-34.129 18.841-46.448C32.082 8.113 48.444 1.192 65.504 1.192c17.061 0 33.423 6.921 45.487 19.24 12.064 12.319 18.841 29.027 18.841 46.448 0 1.99-.089 3.965-.259 5.918l.598.67Z"/>
  <path fill="url(#e)" d="m124.384 73.467.718-.669h4.467l.597.67h-5.782Z"/>
  <path fill="#B7B6B6" d="m28.709 60.594 6.803-6.947h9.647V74h-10.28v-8.076l-6.17 6.296-6.165-6.296V74h-10.28V53.647h9.647l6.798 6.947Z"/>
  <path fill="url(#f)" d="m28.709 62.296-7.289-7.442h-7.98v17.94h7.922V63.02l7.347 7.502 7.351-7.502v9.774h7.922v-17.94h-7.98l-7.293 7.442Z"/>
  <path fill="url(#g)" d="m35.405 73.463.655-.67h7.922l.655.67h-9.232Z"/>
  <path fill="#fff" d="m12.785 54.184.656.67h7.98l.271-.67h-8.907Z"/>
  <path fill="url(#h)" d="m21.692 54.184-.272.67 7.289 7.442v-.946l-7.017-7.166Z"/>
  <path fill="url(#i)" d="M28.709 61.35v.946l7.293-7.442-.272-.67-7.021 7.166Z"/>
  <path fill="#fff" d="m44.637 54.184-.655.67h-7.98l-.272-.67h8.907Z"/>
  <path fill="url(#j)" d="m44.637 54.184-.655.67v17.94l.655.669V54.184Z"/>
  <path fill="#000" d="m35.405 73.463.655-.67V63.02l-.655 1.612v8.83Z"/>
  <path fill="url(#k)" d="M28.709 71.464v-.942l7.351-7.502-.655 1.612-6.696 6.832Z"/>
  <path fill="url(#l)" d="M28.709 71.464v-.942l-7.347-7.502.656 1.612 6.69 6.832Z"/>
  <path fill="url(#m)" d="m22.018 73.463-.656-.67V63.02l.656 1.612v8.83Z"/>
  <path fill="url(#n)" d="m22.018 73.463-.656-.67h-7.921l-.656.67h9.233Z"/>
  <path fill="url(#o)" d="m12.785 54.184.656.67v17.94l-.656.669V54.184Z"/>
  <path fill="#B7B6B6" fill-rule="evenodd" d="M70.983 53.633 83.96 74H73.355l-1.445-2.276H59.13L57.685 74H47.08l12.98-20.367h10.922ZM68.531 66.33l-3-4.752-3.009 4.752h6.01Z" clip-rule="evenodd"/>
  <path fill="url(#p)" d="M60.699 54.83 49.246 72.799h7.815l1.444-2.276h14.06l1.445 2.276h7.801L70.346 54.831h-9.647Zm4.823 4.553 5.162 8.144H60.36l5.171-8.153-.009.009Z"/>
  <path fill="url(#q)" d="M65.522 59.374v1.229l-3.958 6.246-1.204.669 5.162-8.144Z"/>
  <path fill="url(#r)" d="m60.342 54.162.357.669-11.453 17.967-1.208.67 12.304-19.306Z"/>
  <path fill="url(#s)" d="m70.684 67.518-1.203-.67h-7.917l-1.204.67h10.325Z"/>
  <path fill="url(#t)" d="m70.684 67.518-1.203-.67-3.959-6.245v-1.23l5.162 8.145Z"/>
  <path fill="url(#u)" d="m57.404 73.467-.356-.669h-7.802l-1.208.67h9.366Z"/>
  <path fill="url(#v)" d="m57.404 73.467-.356-.669 1.444-2.276.357.665-1.444 2.28Z"/>
  <path fill="url(#w)" d="m72.196 71.187.356-.665h-14.06l.357.665h13.347Z"/>
  <path fill="url(#x)" d="m72.196 71.187.356-.665 1.445 2.276-.357.67-1.444-2.281Z"/>
  <path fill="url(#y)" d="m83.002 73.467-1.204-.669h-7.801l-.357.67h9.362Z"/>
  <path fill="url(#z)" d="m83.002 73.467-1.204-.669-11.452-17.967.356-.67 12.3 19.306Z"/>
  <path fill="#fff" d="m60.342 54.162.357.669h9.647l.356-.67h-10.36Z"/>
  <path fill="#B7B6B6" d="M108.274 53.647h10.275V74h-10.275l-12.18-9.21V74H85.81V53.647h10.204l12.26 9.287v-9.287Z"/>
  <path fill="url(#A)" d="M109.45 54.854v10.474L95.622 54.854h-8.63v17.94h7.921V62.406l13.748 10.388h8.711v-17.94h-7.922Z"/>
  <path fill="url(#B)" d="m86.336 54.184.656.67v17.94l-.656.669V54.184Z"/>
  <path fill="#fff" d="m86.336 54.184.656.67h8.63l.219-.67h-9.505Z"/>
  <path fill="url(#C)" d="m108.795 63.999.655 1.33-13.828-10.475.219-.67L108.794 64Z"/>
  <path fill="url(#D)" d="m108.795 63.999.655 1.33V54.853l-.655-.67V64Z"/>
  <path fill="#fff" d="m118.028 54.184-.656.67h-7.922l-.655-.67h9.233Z"/>
  <path fill="url(#E)" d="m118.028 54.184-.656.67v17.94l.656.669V54.184Z"/>
  <path fill="url(#F)" d="m108.443 73.463.218-.67h8.711l.656.67h-9.585Z"/>
  <path fill="url(#G)" d="m108.443 73.463.218-.67-13.748-10.387.656 1.324 12.874 9.733Z"/>
  <path fill="url(#H)" d="m95.569 73.463-.656-.67V62.407l.656 1.324v9.733Z"/>
  <path fill="url(#I)" d="m95.569 73.463-.656-.67h-7.921l-.656.67h9.233Z"/>
  <defs>
    <linearGradient id="a" x1="65.5" x2="65.5" y1="74" y2="0" gradientUnits="userSpaceOnUse">
      <stop stop-color="#666"/>
      <stop offset=".5" stop-color="#8C8C8C"/>
      <stop offset="1" stop-color="#E6E6E6"/>
    </linearGradient>
    <linearGradient id="b" x1="125.383" x2="5.617" y1="39.604" y2="39.604" gradientUnits="userSpaceOnUse">
      <stop/>
      <stop offset=".35"/>
      <stop offset=".6" stop-color="#EDEDED"/>
      <stop offset="1" stop-color="#EDEDED"/>
    </linearGradient>
    <linearGradient id="c" x1="3.727" x2="3.727" y1="73.467" y2="72.798" gradientUnits="userSpaceOnUse">
      <stop/>
      <stop offset="1" stop-color="#666"/>
    </linearGradient>
    <linearGradient id="d" x1=".522" x2="130.478" y1="37" y2="37" gradientUnits="userSpaceOnUse">
      <stop/>
      <stop offset=".15"/>
      <stop offset=".5" stop-color="#EDEDED"/>
      <stop offset="1" stop-color="#EDEDED"/>
    </linearGradient>
    <linearGradient id="e" x1="127.278" x2="127.278" y1="73.467" y2="72.798" gradientUnits="userSpaceOnUse">
      <stop/>
      <stop offset="1" stop-color="gray"/>
    </linearGradient>
    <linearGradient id="f" x1="16.681" x2="41.244" y1="76.108" y2="52.054" gradientUnits="userSpaceOnUse">
      <stop stop-color="#666"/>
      <stop offset="1" stop-color="#E6E6E6"/>
    </linearGradient>
    <linearGradient id="g" x1="40.019" x2="40.019" y1="73.463" y2="72.794" gradientUnits="userSpaceOnUse">
      <stop/>
      <stop offset="1" stop-color="#4D4D4D"/>
    </linearGradient>
    <linearGradient id="h" x1="21.42" x2="28.709" y1="58.24" y2="58.24" gradientUnits="userSpaceOnUse">
      <stop stop-color="#EDEDED"/>
      <stop offset="1" stop-color="#CCC"/>
    </linearGradient>
    <linearGradient id="i" x1="32.449" x2="31.98" y1="58.477" y2="58.014" gradientUnits="userSpaceOnUse">
      <stop stop-color="#4D4D4D"/>
      <stop offset="1"/>
    </linearGradient>
    <linearGradient id="j" x1="44.307" x2="44.307" y1="54.184" y2="73.463" gradientUnits="userSpaceOnUse">
      <stop stop-color="#EDEDED"/>
      <stop offset="1" stop-color="#D9D9D9"/>
    </linearGradient>
    <linearGradient id="k" x1="566.514" x2="557.888" y1="1314.71" y2="1307.13" gradientUnits="userSpaceOnUse">
      <stop/>
      <stop offset="1" stop-color="#4D4D4D"/>
    </linearGradient>
    <linearGradient id="l" x1="430.202" x2="438.828" y1="1314.71" y2="1307.14" gradientUnits="userSpaceOnUse">
      <stop/>
      <stop offset="1" stop-color="#4D4D4D"/>
    </linearGradient>
    <linearGradient id="m" x1="21.692" x2="21.692" y1="63.02" y2="73.463" gradientUnits="userSpaceOnUse">
      <stop/>
      <stop offset="1" stop-color="#EDEDED"/>
    </linearGradient>
    <linearGradient id="n" x1="373.215" x2="373.215" y1="180.784" y2="179.8" gradientUnits="userSpaceOnUse">
      <stop/>
      <stop offset="1" stop-color="#4D4D4D"/>
    </linearGradient>
    <linearGradient id="o" x1="31.58" x2="32.543" y1="2757.02" y2="2757.02" gradientUnits="userSpaceOnUse">
      <stop/>
      <stop offset="1" stop-color="#4D4D4D"/>
    </linearGradient>
    <linearGradient id="p" x1="65.522" x2="65.522" y1="72.798" y2="54.831" gradientUnits="userSpaceOnUse">
      <stop stop-color="#BFBFBF"/>
      <stop offset="1" stop-color="#E6E6E6"/>
    </linearGradient>
    <linearGradient id="q" x1="819.109" x2="759.33" y1="1194.38" y2="1194.38" gradientUnits="userSpaceOnUse">
      <stop/>
      <stop offset="1" stop-color="#EDEDED"/>
    </linearGradient>
    <linearGradient id="r" x1="1586.79" x2="1606.17" y1="2760.25" y2="2768.56" gradientUnits="userSpaceOnUse">
      <stop/>
      <stop offset="1" stop-color="#4D4D4D"/>
    </linearGradient>
    <linearGradient id="s" x1="1458.3" x2="1697.41" y1="165.611" y2="165.611" gradientUnits="userSpaceOnUse">
      <stop stop-color="#EDEDED"/>
      <stop offset="1" stop-color="#D9D9D9"/>
    </linearGradient>
    <linearGradient id="t" x1="824.27" x2="884.049" y1="1194.38" y2="1194.38" gradientUnits="userSpaceOnUse">
      <stop/>
      <stop offset="1" stop-color="#4D4D4D"/>
    </linearGradient>
    <linearGradient id="u" x1="1155.76" x2="1155.76" y1="180.795" y2="179.811" gradientUnits="userSpaceOnUse">
      <stop/>
      <stop offset="1" stop-color="#4D4D4D"/>
    </linearGradient>
    <linearGradient id="v" x1="290.043" x2="292.79" y1="535.136" y2="536.233" gradientUnits="userSpaceOnUse">
      <stop stop-color="#4D4D4D"/>
      <stop offset="1"/>
    </linearGradient>
    <linearGradient id="w" x1="2125.06" x2="2125.06" y1="174.454" y2="173.484" gradientUnits="userSpaceOnUse">
      <stop/>
      <stop offset="1" stop-color="#4D4D4D"/>
    </linearGradient>
    <linearGradient id="x" x1="366.39" x2="369.137" y1="537.521" y2="536.424" gradientUnits="userSpaceOnUse">
      <stop/>
      <stop offset="1" stop-color="#4D4D4D"/>
    </linearGradient>
    <linearGradient id="y" x1="1718.38" x2="1718.38" y1="180.795" y2="179.811" gradientUnits="userSpaceOnUse">
      <stop/>
      <stop offset="1" stop-color="#4D4D4D"/>
    </linearGradient>
    <linearGradient id="z" x1="2067.46" x2="2426.76" y1="2760.63" y2="2760.63" gradientUnits="userSpaceOnUse">
      <stop stop-color="#EDEDED"/>
      <stop offset="1" stop-color="#D9D9D9"/>
    </linearGradient>
    <linearGradient id="A" x1="8085.91" x2="6015.47" y1="2570.05" y2="2570.05" gradientUnits="userSpaceOnUse">
      <stop stop-color="#666"/>
      <stop offset="1" stop-color="#E6E6E6"/>
    </linearGradient>
    <linearGradient id="B" x1="213.25" x2="214.214" y1="2757.02" y2="2757.02" gradientUnits="userSpaceOnUse">
      <stop/>
      <stop offset="1" stop-color="#4D4D4D"/>
    </linearGradient>
    <linearGradient id="C" x1="95.622" x2="109.45" y1="59.756" y2="59.756" gradientUnits="userSpaceOnUse">
      <stop stop-color="#EDEDED"/>
      <stop offset="1" stop-color="#BFBFBF"/>
    </linearGradient>
    <linearGradient id="D" x1="268.726" x2="269.689" y1="1517.02" y2="1517.02" gradientUnits="userSpaceOnUse">
      <stop/>
      <stop offset="1" stop-color="#4D4D4D"/>
    </linearGradient>
    <linearGradient id="E" x1="289.911" x2="290.875" y1="2757.02" y2="2757.02" gradientUnits="userSpaceOnUse">
      <stop stop-color="#EDEDED"/>
      <stop offset="1" stop-color="#D9D9D9"/>
    </linearGradient>
    <linearGradient id="F" x1="2543" x2="2543" y1="180.784" y2="179.8" gradientUnits="userSpaceOnUse">
      <stop/>
      <stop offset="1" stop-color="#4D4D4D"/>
    </linearGradient>
    <linearGradient id="G" x1="3224.69" x2="3233.63" y1="1719.11" y2="1704.07" gradientUnits="userSpaceOnUse">
      <stop/>
      <stop offset="1" stop-color="#4D4D4D"/>
    </linearGradient>
    <linearGradient id="H" x1="234.922" x2="234.922" y1="1578.24" y2="1846.82" gradientUnits="userSpaceOnUse">
      <stop/>
      <stop offset="1" stop-color="#EDEDED"/>
    </linearGradient>
    <linearGradient id="I" x1="1970.01" x2="1970.01" y1="180.784" y2="179.8" gradientUnits="userSpaceOnUse">
      <stop/>
      <stop offset="1" stop-color="#4D4D4D"/>
    </linearGradient>
  </defs>
</svg>
