<svg xmlns="http://www.w3.org/2000/svg" width="129" height="127" fill="none" viewBox="0 0 129 127">
  <g clip-path="url(#a)">
    <path fill="#C6C5C0" fill-rule="evenodd" d="M64.412 22.297a40.839 40.839 0 0 1 28.984 12.094c7.687 7.744 12.006 18.246 12.006 29.198a40.625 40.625 0 0 1-3.072 15.767 40.39 40.39 0 0 1-8.932 13.313 40.621 40.621 0 0 1-13.27 9.057 40.365 40.365 0 0 1-15.716 3.183A41.277 41.277 0 0 1 35.34 92.787c-7.626-7.73-11.91-18.183-11.916-29.08 0-10.952 4.318-21.454 12.005-29.198a40.838 40.838 0 0 1 28.984-12.094v-.118Zm0 .65a40.49 40.49 0 0 0-28.504 12.02c-7.559 7.631-11.825 17.959-11.87 28.74a40.157 40.157 0 0 0 3.114 15.56 39.918 39.918 0 0 0 8.89 13.107 39.443 39.443 0 0 0 13.04 8.808 39.203 39.203 0 0 0 15.418 2.99 40.14 40.14 0 0 0 28.427-11.855c7.545-7.585 11.8-17.873 11.831-28.61a40.846 40.846 0 0 0-3.022-15.6 40.606 40.606 0 0 0-8.737-13.233 40.269 40.269 0 0 0-13.111-8.839 40.031 40.031 0 0 0-15.476-3.089Z" clip-rule="evenodd"/>
    <path fill="url(#b)" fill-rule="evenodd" d="M64.412.413a62.621 62.621 0 0 1 38.062 12.977l6.968-7.02L121.68 18.7l-6.792 7.196a63.463 63.463 0 0 1 12.343 39.529 63.411 63.411 0 0 1-14.639 38.725c-9.065 10.882-21.507 18.368-35.317 21.246a62.277 62.277 0 0 1-40.787-5.383c-12.607-6.365-22.716-16.826-28.692-29.693A63.571 63.571 0 0 1 3.554 49.1c3.229-13.828 10.992-26.156 22.035-34.99A62.397 62.397 0 0 1 64.412.412Zm0 14.747a47.622 47.622 0 0 0-26.559 8.162 48.15 48.15 0 0 0-17.593 21.64A48.551 48.551 0 0 0 17.552 72.8a48.333 48.333 0 0 0 13.089 24.67 47.763 47.763 0 0 0 24.48 13.2 47.554 47.554 0 0 0 27.637-2.711 47.954 47.954 0 0 0 21.494-17.71 48.474 48.474 0 0 0 8.118-26.75c-.023-12.797-5.086-25.062-14.078-34.103-8.99-9.04-21.176-14.118-33.88-14.118v-.118Z" clip-rule="evenodd"/>
    <path fill="url(#c)" fill-rule="evenodd" d="M64.412 15.071a47.915 47.915 0 0 1 18.512 3.661 48.197 48.197 0 0 1 15.701 10.535 48.605 48.605 0 0 1 10.487 15.798 48.883 48.883 0 0 1 3.668 18.641 48.883 48.883 0 0 1-3.668 18.642 48.604 48.604 0 0 1-10.487 15.797 48.2 48.2 0 0 1-15.7 10.536 47.926 47.926 0 0 1-18.513 3.661c-12.79-.024-25.047-5.158-34.082-14.277-9.035-9.118-14.11-21.475-14.11-34.359a48.738 48.738 0 0 1 3.66-18.618 48.454 48.454 0 0 1 10.482-15.771 47.501 47.501 0 0 1 15.597-10.585 47.218 47.218 0 0 1 18.453-3.66Zm0 .65C51.77 15.702 39.64 20.74 30.684 29.73a47.661 47.661 0 0 0-10.29 15.593 47.939 47.939 0 0 0-3.53 18.383c-.017 12.735 4.985 24.956 13.907 33.977 8.987 8.886 21.049 13.909 33.641 14.01 12.624-.072 24.724-5.097 33.729-14.01a48.06 48.06 0 0 0 10.353-15.586 48.36 48.36 0 0 0 3.642-18.39 48.163 48.163 0 0 0-3.595-18.408A47.876 47.876 0 0 0 98.196 29.7 47.465 47.465 0 0 0 82.69 19.308a47.186 47.186 0 0 0-18.279-3.588Z" clip-rule="evenodd"/>
    <path fill="url(#d)" fill-rule="evenodd" d="M64.412 0a62.332 62.332 0 0 1 38.472 13.154l-.234.236C90.129 3.761 74.45-.728 58.773.83 43.097 2.385 28.59 9.87 18.176 21.777 7.762 33.683 2.216 49.123 2.657 64.985c.441 15.862 6.836 30.966 17.895 42.266 11.059 11.3 25.96 17.957 41.698 18.627 15.738.67 31.143-4.696 43.109-15.015 11.966-10.32 19.604-24.826 21.372-40.594 1.768-15.768-2.464-31.625-11.843-44.374l.205-.206a63.279 63.279 0 0 1 12.443 37.81 63.945 63.945 0 0 1-4.829 24.368 63.578 63.578 0 0 1-13.733 20.64 62.308 62.308 0 0 1-20.435 13.761A61.942 61.942 0 0 1 64.412 127c-16.643.004-32.607-6.647-44.386-18.493C8.18 96.564 1.507 80.383 1.464 63.5c.092-16.797 6.75-32.882 18.533-44.768C31.78 6.846 47.737.116 64.412 0Z" clip-rule="evenodd"/>
    <path fill="url(#e)" fill-rule="evenodd" d="M64.412 15.514a47.592 47.592 0 0 1 26.603 8.079 48.122 48.122 0 0 1 17.659 21.61 48.526 48.526 0 0 1 2.758 27.851 48.301 48.301 0 0 1-13.073 24.698 47.738 47.738 0 0 1-24.493 13.215 47.522 47.522 0 0 1-27.654-2.728A47.918 47.918 0 0 1 24.728 90.49a48.446 48.446 0 0 1-8.069-26.784c-.007-12.768 5.018-25.017 13.973-34.054 8.954-9.038 21.105-14.123 33.78-14.138Zm0 6.783a40.777 40.777 0 0 0-22.772 6.959 41.228 41.228 0 0 0-15.097 18.53 41.574 41.574 0 0 0-2.333 23.858 41.386 41.386 0 0 0 11.218 21.142 40.896 40.896 0 0 0 20.988 11.3 40.715 40.715 0 0 0 23.682-2.349 41.06 41.06 0 0 0 18.396-15.208 41.506 41.506 0 0 0 6.908-22.94c0-10.952-4.319-21.454-12.006-29.198a40.838 40.838 0 0 0-28.984-12.094Z" clip-rule="evenodd"/>
    <path fill="url(#f)" fill-rule="evenodd" d="M7.29 78.807a.238.238 0 0 0 0 .148h.322v-.472a.67.67 0 0 0-.351.147.356.356 0 0 0 .03.177Z" clip-rule="evenodd" opacity=".67" style="mix-blend-mode:multiply"/>
    <path fill="url(#g)" d="M16.513 77.45h-.293v.236h.293v-.236Z" opacity=".67" style="mix-blend-mode:multiply"/>
    <path fill="url(#h)" d="M16.513 77.746h-.293v.265h.293v-.265Z" opacity=".67" style="mix-blend-mode:multiply"/>
    <path fill="url(#i)" fill-rule="evenodd" d="M10.277 78.807a.207.207 0 0 0 0 .148.29.29 0 0 0 .146 0v-.472a.67.67 0 0 0-.351.147.324.324 0 0 0 .205.177Z" clip-rule="evenodd" opacity=".67" style="mix-blend-mode:multiply"/>
    <path fill="url(#j)" d="M18.328 77.893h-.82v.383h.82v-.383Z" opacity=".67" style="mix-blend-mode:multiply"/>
    <path fill="url(#k)" d="M3.25 76.684h22.427a39.805 39.805 0 0 0 3.601 7.727H5.446a61.517 61.517 0 0 1-2.196-7.727Z" opacity=".67" style="mix-blend-mode:multiply"/>
    <path fill="url(#l)" d="M18.328 77.51h-.82v.353h.82v-.353Z" opacity=".67" style="mix-blend-mode:multiply"/>
    <path fill="url(#m)" fill-rule="evenodd" d="M103.382 76.684h22.514a61.404 61.404 0 0 1-2.195 7.727H99.897a41.782 41.782 0 0 0 3.485-7.727Z" clip-rule="evenodd" opacity=".86" style="mix-blend-mode:multiply"/>
    <path fill="#1D1D1B" fill-rule="evenodd" d="M126.892 47.573A56.458 56.458 0 0 1 129 63.5a69.979 69.979 0 0 1-2.108 16.546H2.313v-.207h124.374a60.73 60.73 0 0 0 2.137-16.545 61.628 61.628 0 0 0-1.932-15.72Z" clip-rule="evenodd"/>
    <path fill="url(#n)" fill-rule="evenodd" d="M2.108 47.367h124.784a64.457 64.457 0 0 1 1.903 15.927 60.756 60.756 0 0 1-2.108 16.546H2.313A62.005 62.005 0 0 1 0 63.294a65.9 65.9 0 0 1 2.108-15.927Z" clip-rule="evenodd"/>
    <path fill="url(#o)" fill-rule="evenodd" d="m112.136 2.124 13.936 14.01-10.335 10.41.615.856-7.378 5.928-2.313.855L121.856 18.7 109.618 6.371 94.452 21.648l.615-2.123 17.069-17.401Z" clip-rule="evenodd"/>
    <path fill="url(#p)" fill-rule="evenodd" d="M98.228.649a72.84 72.84 0 0 1 28.898 28.845V.649H98.228Z" clip-rule="evenodd"/>
    <path stroke="#B2B1A7" stroke-linecap="round" stroke-width=".34" d="M98.228.649a72.84 72.84 0 0 1 28.898 28.845"/>
    <path stroke="#CCCBC3" stroke-linecap="round" stroke-width=".24" d="M98.228.649a72.082 72.082 0 0 1 28.664 28.845"/>
    <path stroke="#E7E6E1" stroke-linecap="round" stroke-width=".13" d="M98.024.649a71.818 71.818 0 0 1 28.868 29.08"/>
    <path stroke="#fff" stroke-linecap="round" stroke-width=".03" d="M98.024.649a72.797 72.797 0 0 1 28.663 29.08"/>
    <path fill="url(#q)" fill-rule="evenodd" d="M127.126 0c.205 0 .41.206.41.649H97.819c0-.443.205-.649.41-.649h28.897Z" clip-rule="evenodd"/>
    <path fill="url(#r)" fill-rule="evenodd" d="M127.536 29.494c0 .413-.205.62-.41.62l-.234-.414V0h.234c.205 0 .41.206.41.649v28.845Z" clip-rule="evenodd"/>
    <path fill="#fff" fill-rule="evenodd" d="M109.618 71.434c-5.622 0-10.218-3.45-10.218-7.727s4.596-7.669 10.218-7.669c5.621 0 10.423 3.392 10.423 7.669 0 4.276-4.685 7.727-10.423 7.727Zm0-13.154c-2.02 0-3.484 2.27-3.484 5.426s1.493 5.22 3.484 5.22c1.991 0 3.484-2.388 3.484-5.22 0-2.83-1.552-5.426-3.484-5.426Zm-64.09 13.154c-5.622 0-10.19-3.45-10.19-7.727s4.656-7.521 10.19-7.521c5.533 0 10.423 3.362 10.423 7.52 0 4.16-4.685 7.728-10.423 7.728Zm0-12.948c-1.991 0-3.484 2.242-3.484 5.22 0 2.98 1.493 5.22 3.484 5.22 1.99 0 3.513-2.388 3.513-5.22 0-2.83-1.61-5.22-3.513-5.22Zm37.534 12.535-6.617-12.358h-3.25v-2.005H87.63v2.005h-3.66l5.124 8.583 4.274-8.7H90.91v-2.007h10.013v2.006h-3.484l-6.47 12.328-7.906.148Zm-26.35 0v-2.419h3.455v-9.91h-3.28v-2.005H70.24v2.006h-3.455v9.91h3.513a4.346 4.346 0 0 0 2.996-1.224 4.41 4.41 0 0 0 1.337-2.965h2.196v6.754l-20.114-.147Zm-37.74 0-6.617-12.358H9.076v-2.005h14.405v2.005h-3.66l5.124 8.583 4.48-8.7H26.76v-2.007h10.013v2.006H33.32l-6.5 12.476h-7.847Z" clip-rule="evenodd"/>
    <path fill="#323230" d="M109.618 56.038c5.68 0 10.423 3.421 10.423 7.669 0 4.247-4.655 7.638-10.335 7.638-5.68 0-10.16-3.51-10.16-7.639 0-4.129 4.597-7.668 10.072-7.668Zm0 12.948c1.903 0 3.572-2.33 3.572-5.309s-1.669-5.515-3.572-5.515-3.572 2.33-3.572 5.515c0 3.185 1.464 5.309 3.572 5.309Zm-64.09-12.712c5.709 0 10.335 3.392 10.335 7.432 0 4.041-4.626 7.64-10.335 7.64-5.71 0-10.101-3.51-10.101-7.64 0-4.129 4.626-7.432 10.1-7.432Zm0 12.741c1.903 0 3.6-2.33 3.6-5.309 0-2.978-1.697-5.308-3.6-5.308s-3.572 2.33-3.572 5.308c0 2.98 1.464 5.31 3.572 5.31Zm55.248-12.328v1.917h-3.397l-6.616 12.328h-7.7l-6.53-12.328h-3.337v-1.917h14.346v1.917h-3.63l5.035 8.7 4.45-8.7h-2.634v-1.917h10.013Zm-30.889 0v1.917h-3.279v9.998h3.66a4.404 4.404 0 0 0 3.056-1.23 4.468 4.468 0 0 0 1.365-3.017h2.108v6.577H56.712v-2.33h3.367v-9.998h-3.367v-1.917h13.263-.088Zm-33.201 0v1.917h-3.367L26.76 70.932h-7.788l-6.529-12.328H9.076v-1.917h14.347v1.917H19.82l5.066 8.7 4.625-8.7H26.76v-1.917h9.926Zm72.932-.649c-5.68 0-10.306 3.51-10.306 7.816s4.626 7.816 10.306 7.816c5.68 0 10.423-3.657 10.423-7.964 0-4.306-4.626-7.668-10.423-7.668Zm0 12.948c-1.933 0-3.396-2.212-3.396-5.132 0-2.92 1.434-5.338 3.396-5.338 1.961 0 3.396 2.389 3.396 5.338 0 2.95-1.552 5.132-3.396 5.132Zm-64.09-12.948c-5.563 0-10.394 3.54-10.394 7.669s4.597 7.815 10.277 7.815c5.68 0 10.51-3.51 10.51-7.816s-4.596-7.668-10.393-7.668Zm0 12.741c-1.933 0-3.397-2.212-3.397-5.131 0-2.92 1.464-5.132 3.397-5.132 1.932 0 3.425 2.36 3.425 5.132s-1.58 5.131-3.425 5.131Zm55.423-12.328H90.763v2.271h2.43l-4.246 8.229-4.743-8.17h3.455V56.51H73.02v2.271h3.396l6.5 12.24h8.022l6.47-12.24h3.456V56.51l.087-.059Zm-30.683.059H56.536v2.271h3.367v9.645h-3.367v2.683h20.495v-6.93h-2.46a4.304 4.304 0 0 1-1.274 3.025 4.243 4.243 0 0 1-3.03 1.222h-3.483V58.78h3.484v-2.27Zm-33.29 0H26.585v2.271h2.693l-4.42 8.17-4.744-8.17h3.455V56.51H8.783v2.271h3.543l6.5 12.24h8.051l6.47-12.24h3.456V56.51h.175Z"/>
    <path fill="url(#s)" d="M2.342 47.603A66.315 66.315 0 0 0 .234 63.529c0 .443.147 3.156.147 3.628l.38 4.1c0-.354-.175-7.02-.175-7.374a64.646 64.646 0 0 1 2.342-15.72l43.917-.206 19.06-.354H2.342Z"/>
  </g>
  <defs>
    <linearGradient id="c" x1="39.789" x2="86.765" y1="55.124" y2="71.163" gradientUnits="userSpaceOnUse">
      <stop stop-color="#E4E2DC"/>
      <stop offset="1" stop-color="#fff"/>
    </linearGradient>
    <linearGradient id="f" x1="7.525" x2="7.525" y1="79.073" y2="78.719" gradientUnits="userSpaceOnUse">
      <stop stop-color="#fff"/>
      <stop offset=".17" stop-color="#FCFBFA"/>
      <stop offset=".43" stop-color="#BCBCB6"/>
      <stop offset=".52" stop-color="#90908A"/>
      <stop offset=".62" stop-color="#696964"/>
      <stop offset=".72" stop-color="#4B4A46"/>
      <stop offset=".82" stop-color="#353530"/>
      <stop offset=".91" stop-color="#282723"/>
      <stop offset="1" stop-color="#24231F"/>
    </linearGradient>
    <linearGradient id="g" x1="17.857" x2="17.857" y1="83.668" y2="83.656" gradientUnits="userSpaceOnUse">
      <stop stop-color="#fff"/>
      <stop offset=".17" stop-color="#FCFBFA"/>
      <stop offset=".43" stop-color="#BCBCB6"/>
      <stop offset=".52" stop-color="#90908A"/>
      <stop offset=".62" stop-color="#696964"/>
      <stop offset=".72" stop-color="#4B4A46"/>
      <stop offset=".82" stop-color="#353530"/>
      <stop offset=".91" stop-color="#282723"/>
      <stop offset="1" stop-color="#24231F"/>
    </linearGradient>
    <linearGradient id="h" x1="17.857" x2="17.857" y1="84.769" y2="84.753" gradientUnits="userSpaceOnUse">
      <stop stop-color="#fff"/>
      <stop offset=".17" stop-color="#FCFBFA"/>
      <stop offset=".43" stop-color="#BCBCB6"/>
      <stop offset=".52" stop-color="#90908A"/>
      <stop offset=".62" stop-color="#696964"/>
      <stop offset=".72" stop-color="#4B4A46"/>
      <stop offset=".82" stop-color="#353530"/>
      <stop offset=".91" stop-color="#282723"/>
      <stop offset="1" stop-color="#24231F"/>
    </linearGradient>
    <linearGradient id="i" x1="11.333" x2="11.333" y1="91.385" y2="91.328" gradientUnits="userSpaceOnUse">
      <stop stop-color="#fff"/>
      <stop offset=".17" stop-color="#FCFBFA"/>
      <stop offset=".43" stop-color="#BCBCB6"/>
      <stop offset=".52" stop-color="#90908A"/>
      <stop offset=".62" stop-color="#696964"/>
      <stop offset=".72" stop-color="#4B4A46"/>
      <stop offset=".82" stop-color="#353530"/>
      <stop offset=".91" stop-color="#282723"/>
      <stop offset="1" stop-color="#24231F"/>
    </linearGradient>
    <linearGradient id="j" x1="22.526" x2="22.526" y1="88.073" y2="88.042" gradientUnits="userSpaceOnUse">
      <stop stop-color="#fff"/>
      <stop offset=".17" stop-color="#FCFBFA"/>
      <stop offset=".43" stop-color="#BCBCB6"/>
      <stop offset=".52" stop-color="#90908A"/>
      <stop offset=".62" stop-color="#696964"/>
      <stop offset=".72" stop-color="#4B4A46"/>
      <stop offset=".82" stop-color="#353530"/>
      <stop offset=".91" stop-color="#282723"/>
      <stop offset="1" stop-color="#24231F"/>
    </linearGradient>
    <linearGradient id="k" x1="147.187" x2="147.187" y1="298.536" y2="286.636" gradientUnits="userSpaceOnUse">
      <stop stop-color="#fff"/>
      <stop offset=".17" stop-color="#FCFBFA"/>
      <stop offset=".43" stop-color="#BCBCB6"/>
      <stop offset=".52" stop-color="#90908A"/>
      <stop offset=".62" stop-color="#696964"/>
      <stop offset=".72" stop-color="#4B4A46"/>
      <stop offset=".82" stop-color="#353530"/>
      <stop offset=".91" stop-color="#282723"/>
      <stop offset="1" stop-color="#24231F"/>
    </linearGradient>
    <linearGradient id="l" x1="22.526" x2="22.526" y1="86.853" y2="86.828" gradientUnits="userSpaceOnUse">
      <stop stop-color="#fff"/>
      <stop offset=".17" stop-color="#FCFBFA"/>
      <stop offset=".43" stop-color="#BCBCB6"/>
      <stop offset=".52" stop-color="#90908A"/>
      <stop offset=".62" stop-color="#696964"/>
      <stop offset=".72" stop-color="#4B4A46"/>
      <stop offset=".82" stop-color="#353530"/>
      <stop offset=".91" stop-color="#282723"/>
      <stop offset="1" stop-color="#24231F"/>
    </linearGradient>
    <linearGradient id="m" x1="-437.41" x2="-437.41" y1="298.536" y2="286.636" gradientUnits="userSpaceOnUse">
      <stop stop-color="#fff"/>
      <stop offset=".17" stop-color="#FCFBFA"/>
      <stop offset=".43" stop-color="#BCBCB6"/>
      <stop offset=".52" stop-color="#90908A"/>
      <stop offset=".62" stop-color="#696964"/>
      <stop offset=".72" stop-color="#4B4A46"/>
      <stop offset=".82" stop-color="#353530"/>
      <stop offset=".91" stop-color="#282723"/>
      <stop offset="1" stop-color="#24231F"/>
    </linearGradient>
    <linearGradient id="o" x1="124.813" x2="92.902" y1="33.682" y2="1.974" gradientUnits="userSpaceOnUse">
      <stop offset=".01" stop-color="#20200B"/>
      <stop offset=".65" stop-color="#43423E"/>
      <stop offset=".66" stop-color="#64635F"/>
      <stop offset=".67" stop-color="#A6A5A2"/>
      <stop offset=".68" stop-color="#F2F2EF"/>
      <stop offset=".69" stop-color="#6F6E68"/>
      <stop offset=".71" stop-color="#585752"/>
      <stop offset=".74" stop-color="#42423E"/>
      <stop offset=".77" stop-color="#31312E"/>
      <stop offset=".8" stop-color="#262623"/>
      <stop offset=".85" stop-color="#1F1F1D"/>
      <stop offset="1" stop-color="#1D1D1B"/>
    </linearGradient>
    <linearGradient id="q" x1="97.819" x2="127.536" y1=".324" y2=".324" gradientUnits="userSpaceOnUse">
      <stop stop-color="#5C5C5B"/>
      <stop offset=".07" stop-color="#51514F"/>
      <stop offset=".25" stop-color="#3D3D3A"/>
      <stop offset=".44" stop-color="#2F2E2B"/>
      <stop offset=".67" stop-color="#272622"/>
      <stop offset="1" stop-color="#24231F"/>
    </linearGradient>
    <linearGradient id="r" x1="127.214" x2="127.214" y1="30.143" y2="0" gradientUnits="userSpaceOnUse">
      <stop stop-color="#5C5C5B"/>
      <stop offset=".08" stop-color="#565554"/>
      <stop offset=".45" stop-color="#3A3A37"/>
      <stop offset=".77" stop-color="#2A2925"/>
      <stop offset="1" stop-color="#24231F"/>
    </linearGradient>
    <linearGradient id="s" x1="17.245" x2="36.457" y1="37.427" y2="63.218" gradientUnits="userSpaceOnUse">
      <stop stop-color="#fff"/>
      <stop offset=".11" stop-color="#D8E8F4"/>
      <stop offset=".34" stop-color="#8CBCDD"/>
      <stop offset=".54" stop-color="#5098CC"/>
      <stop offset=".71" stop-color="#257FBF"/>
      <stop offset=".85" stop-color="#0A6FB7"/>
      <stop offset=".93" stop-color="#066BB5"/>
      <stop offset=".95" stop-color="#2878BD"/>
      <stop offset=".97" stop-color="#4081C2"/>
      <stop offset=".99" stop-color="#4F86C6"/>
      <stop offset="1" stop-color="#5488C7"/>
    </linearGradient>
    <radialGradient id="b" cx="0" cy="0" r="1" gradientTransform="matrix(130.786 0 0 131.748 19.733 51.054)" gradientUnits="userSpaceOnUse">
      <stop stop-color="#fff"/>
      <stop offset=".04" stop-color="#FDFCFC"/>
      <stop offset=".22" stop-color="#FCFBFA"/>
      <stop offset=".23" stop-color="#F9F8F7"/>
      <stop offset=".38" stop-color="#B7B6B5"/>
      <stop offset=".5" stop-color="#888784"/>
      <stop offset=".59" stop-color="#6A6966"/>
      <stop offset=".65" stop-color="#5F5E5B"/>
      <stop offset=".73" stop-color="#555451"/>
      <stop offset=".87" stop-color="#3A3935"/>
      <stop offset="1" stop-color="#1D1C18"/>
    </radialGradient>
    <radialGradient id="d" cx="0" cy="0" r="1" gradientTransform="matrix(143.522 0 0 144.578 101.713 104.142)" gradientUnits="userSpaceOnUse">
      <stop stop-color="#C6C6C1"/>
      <stop offset="1" stop-color="#87867E"/>
    </radialGradient>
    <radialGradient id="e" cx="0" cy="0" r="1" gradientTransform="matrix(100.776 0 0 101.517 87.073 86.446)" gradientUnits="userSpaceOnUse">
      <stop stop-color="#fff"/>
      <stop offset=".21" stop-color="#F2F2F2"/>
      <stop offset=".3" stop-color="#E7E7E7"/>
      <stop offset=".38" stop-color="#C2C1C0"/>
      <stop offset=".45" stop-color="#A4A3A2"/>
      <stop offset=".51" stop-color="#8F8E8C"/>
      <stop offset=".58" stop-color="#82817E"/>
      <stop offset=".64" stop-color="#7E7D7A"/>
      <stop offset=".75" stop-color="#565552"/>
      <stop offset=".85" stop-color="#373632"/>
      <stop offset=".94" stop-color="#24231F"/>
      <stop offset="1" stop-color="#1D1C18"/>
    </radialGradient>
    <radialGradient id="n" cx="0" cy="0" r="1" gradientTransform="matrix(81.3643 0 0 81.9631 5.826 51.054)" gradientUnits="userSpaceOnUse">
      <stop stop-color="#0069B4"/>
      <stop offset=".01" stop-color="#0068B3"/>
      <stop offset=".13" stop-color="#0061A6"/>
      <stop offset=".24" stop-color="#005EA1"/>
      <stop offset=".49" stop-color="#005490"/>
      <stop offset=".84" stop-color="#004273"/>
      <stop offset=".96" stop-color="#004072"/>
      <stop offset="1" stop-color="#003B6E"/>
    </radialGradient>
    <radialGradient id="p" cx="0" cy="0" r="1" gradientTransform="matrix(33.9921 0 0 34.2422 122.207 3.864)" gradientUnits="userSpaceOnUse">
      <stop stop-color="#55544F"/>
      <stop offset="1" stop-color="#4F4F4A"/>
    </radialGradient>
    <clipPath id="a">
      <path fill="#fff" d="M0 0h129v127H0z"/>
    </clipPath>
  </defs>
</svg>
